# xmcd
#
# Track frame offsets: 
#        150
#        15648
#        28641
#        40189
#        62506
#        86733
#        102868
#        120796
#        136715
#        149888
#        164262
#        177932
#        198956
#        217992
#        233679
#        246296
#        257096
#        271730
#
# Disc length: 3903 seconds
#
# Revision: 0
# Processed by: cddbd v1.5.2PL0 Copyright (c) Steve Scherf et al.
# Submitted via: ExactAudioCopy v0.95b4
#
DISCID=ee0f3d12
DTITLE=Various Artist - Various - Tears Full Of Soul - Tear Jerkers From The 
DTITLE=Heart And Soul
DYEAR=2007
DGENRE=Soul
TTITLE0=Marion Jarvis - Hell Of A Fix
TTITLE1=Continental 4 - (You're Living In A) Dream World
TTITLE2=Val Martin - What Can I Do
TTITLE3=Jean Carne - Do My Best
TTITLE4=Positive Express - Not On The Outside
TTITLE5=Bobby Patterson - Right Place, Wrong Time
TTITLE6=Lonnie Youngblood - Girl I'm Gonna Miss You
TTITLE7=Communicators and The Black Experience Band - One Chance
TTITLE8=Mark Greene - I'm So Lost
TTITLE9=Jean Knight - Don't Ask For 24 Hours
TTITLE10=Jimmy Briscoe and The Little Beavers - Where Were You (When I N
TTITLE10=eeded You)
TTITLE11=Louis Williams - I Care For You
TTITLE12=Eleanore Mills - Telegram
TTITLE13=The Barrons - I'm So Lonely
TTITLE14=Lee Moses - I Can't Take No Chances
TTITLE15=Susan Phillips - He's Gone
TTITLE16=First Class - What About Me
TTITLE17=Dave 'Baby' Cortez - Unaddressed Letter
EXTD=
EXTT0=
EXTT1=
EXTT2=
EXTT3=
EXTT4=
EXTT5=
EXTT6=
EXTT7=
EXTT8=
EXTT9=
EXTT10=
EXTT11=
EXTT12=
EXTT13=
EXTT14=
EXTT15=
EXTT16=
EXTT17=
PLAYORDER=
